<svg height="25" viewBox="0 0 219 35" xmlns="http://www.w3.org/2000/svg">
    <g fill="#000" fill-rule="evenodd">
        <path d="M4.799.774H25.18l-1.305 9.205h-9.293l-.455 3.215h8.484l-1.248 8.757h-8.486l-.471 3.31h9.612l-1.309 9.202H0L4.799.774M54.852.774L52.008 20.7C50.617 30.53 44.432 35 35.945 35c-8.486 0-13.394-4.47-11.996-14.3L26.791.774h11.012l-2.67 18.765c-.375 2.637-.627 4.961 2.312 4.961 2.93 0 3.344-2.324 3.719-4.961L43.838.774h11.014M65.152 15.697h.762c1.807 0 3.658-.314 4.022-2.814.365-2.591-1.241-2.904-3.123-2.904h-.852l-.809 5.718zM56.502.774h13.311c6.828 0 12.16 3.215 10.949 11.705-.721 5.094-2.799 7.243-7.114 8.76l5.229 13.224H67.5l-3.484-10.812-1.545 10.812h-10.77L56.502.774zM92.378 17.886c-.544 3.841 1.406 6.483 4.744 6.483s6.048-2.642 6.593-6.483c.508-3.574-1.239-6.567-4.727-6.567-3.502 0-6.103 2.993-6.61 6.567zm22.463-.177C113.298 28.52 104.856 35 95.611 35c-9.244 0-15.841-6.48-14.306-17.291C82.82 7.12 91.355.238 100.563.238c9.206 0 15.785 6.882 14.278 17.471zM121.606.774h11.333l1.666 17.696L141.586.774h11.217l.188 33.689h-10.663l.944-18.45-7.736 18.45h-6.434l-1.993-18.45-4.558 18.45h-10.659L121.606.774"></path>
        <path d="M171.659 22.265l-.785-10.273-3.643 10.273h4.428zm-9.015 12.198h-11.66L166.31.774h12.186l6.018 33.688-11.664.001-.405-4.202h-8.322l-1.479 4.202z"></path>
        <path d="M187.972.774h10.576l6.813 17.588 2.47-17.588h10.535l-4.8 33.688h-10.532l-6.891-16.969-2.435 16.969-10.528.001L187.972.774"></path>
    </g>
</svg>